PathFileType	4	(x/y/z)	S02_M20_T04
DataRate	CameraRate	NumFrames	NumMarkers	Units	OrigDataRate	OrigDataStartFrame	OrigNumFrames
240	240	8	51	mm	240	292	466
Frame#	Time	Sternum			R.Acromium			L.Acromium			Top.Head			R.ASIS			L.ASIS			R.PSIS			L.PSIS			R.Great.Tro			L.Great.Tro			R.Iliac.Crest			L.Iliac.Crest			V.Sacral			R.Thigh.Upper.Post			R.Thigh.Lower.Ant			R.Thigh.Lower.Post			R.Thigh.Upper.Ant			R.Knee.Lat			R.Knee.Med			R.Shank.Upper.Post			R.Shank.Lower.Ant			R.Shank.Lower.Post			R.Shank.Upper.Ant			R.Ankle.Lat			R.Ankle.Med			R.Heel.Upper			R.Heel.Med			R.Heel.Lat			R.Toe.Lat			R.Toe.Med			R.Toe.Tip			L.Thigh.Upper.Post			L.Thigh.Lower.Ant			L.Thigh.Lower.Post			L.Thigh.Upper.Ant			L.Knee.Lat			L.Knee.Med			L.Shank.Upper.Post			L.Shank.Lower.Ant			L.Shank.Lower.Post			L.Shank.Upper.Ant			L.Ankle.Lat			L.Ankle.Med			L.Heel.Upper			L.Heel.Med			L.Heel.Lat			L.Toe.Lat			L.Toe.Med			L.Toe.Tip			Cervical.Spine			Back			
		X1	Y1	Z1	X2	Y2	Z2	X3	Y3	Z3	X4	Y4	Z4	X5	Y5	Z5	X6	Y6	Z6	X7	Y7	Z7	X8	Y8	Z8	X9	Y9	Z9	X10	Y10	Z10	X11	Y11	Z11	X12	Y12	Z12	X13	Y13	Z13	X14	Y14	Z14	X15	Y15	Z15	X16	Y16	Z16	X17	Y17	Z17	X18	Y18	Z18	X19	Y19	Z19	X20	Y20	Z20	X21	Y21	Z21	X22	Y22	Z22	X23	Y23	Z23	X24	Y24	Z24	X25	Y25	Z25	X26	Y26	Z26	X27	Y27	Z27	X28	Y28	Z28	X29	Y29	Z29	X30	Y30	Z30	X31	Y31	Z31	X32	Y32	Z32	X33	Y33	Z33	X34	Y34	Z34	X35	Y35	Z35	X36	Y36	Z36	X37	Y37	Z37	X38	Y38	Z38	X39	Y39	Z39	X40	Y40	Z40	X41	Y41	Z41	X42	Y42	Z42	X43	Y43	Z43	X44	Y44	Z44	X45	Y45	Z45	X46	Y46	Z46	X47	Y47	Z47	X48	Y48	Z48	X49	Y49	Z49	X50	Y50	Z50	X51	Y51	Z51	

292	1.2125	19.319	1058.8	346.46	-91.734	1287.1	485.28	-86.171	1300.3	192.24	-30.934	1573.1	331.54	-29.105	880.27	464.85	29.708	877.75	250.91	-224.66	921.39	342.63	-207.33	921.96	269.76	-141.9	780.33	527.18	-60.203	787.49	134.5	-146.01	927.18	489.89	-75.426	927.15	154.46	-243.62	876.02	292.09	-193.72	588.19	496.65	-165.08	495.79	463.67	-235.91	512.29	471.63	-126.7	573.49	487.51	-246.49	432.26	453.23	-245.15	422.87	309.67	-404.67	277.33	424.2	-371.66	172.87	404.58	-429.61	208.32	410.56	-345.13	234.98	425.33	-455.18	112.93	393.51	-441.12	125.73	311.07	-518.3	111.49	336.11	-511.34	77.508	309.04	-522.05	80.691	372.24	-369.94	38.086	420.16	-335.45	32.33	313.39	-286.83	52.924	369.54	0.97358	564.13	160.14	103.1	526.93	178.31	37.225	483.96	186.13	57.606	607.04	152.62	120.23	449.08	188.47	107.2	442.03	330.24	123.52	260.24	193.28	227.87	220.64	203.24	159.41	196.32	209.63	185.04	282.17	187.91	249.91	107.38	217.06	262.81	117.67	298.83	215.02	52.929	256.72	235.54	38.706	293.23	234.09	27.182	232.6	381.52	96.786	193.59	392.46	131.24	297.32	434.68	171.19	245.89	-164.9	1354.7	341.94	-245.87	1103.1	332.48
293	1.2167	25.49	1058.2	345.97	-85.59	1286.7	484.41	-79.912	1299.6	191.36	-25.387	1572.7	329.9	-23.211	879.45	464.64	35.79	877.08	250.67	-218.62	920.82	342.39	-201.4	921.46	269.51	-136.4	779.58	526.83	-53.947	787.17	134.26	-140.04	926.45	489.65	-69.436	926.46	154.24	-237.61	875.53	291.71	-188.45	587.59	496.35	-159.91	495.11	463.57	-230.73	511.75	471.38	-121.42	572.76	487.4	-241.47	431.72	453.08	-239.95	422.21	309.56	-401.22	278.5	424.23	-369.61	173.63	404.69	-427	209.77	410.66	-342.26	235.46	425.35	-453.7	114.67	393.93	-439.43	127.25	311.39	-516.78	114.16	336.52	-510.31	80.18	309.3	-520.99	83.239	372.52	-369.63	38.159	420.31	-335.39	32.319	313.45	-286.71	52.694	369.48	7.3035	563.74	160.14	109.45	526.67	178.42	43.624	483.64	186.3	63.887	606.69	152.57	126.47	448.66	188.69	113.72	441.96	330.34	128.03	259.72	193.51	231.92	219.04	203.8	163.21	195.41	209.87	189.78	281.03	188.39	252.63	105.98	217.45	265.6	115.74	299.37	217.05	52.418	257.09	237.19	37.642	293.43	235.57	26.539	232.75	383.98	93.763	194.08	395.35	127.58	297.97	438.16	167.07	246.72	-158.82	1354.2	340.95	-239.72	1102.5	332.03
294	1.2208	31.717	1057.7	345.47	-79.417	1286.4	483.51	-73.612	1299	190.46	-19.824	1572.3	328.25	-17.227	878.69	464.37	41.904	876.48	250.38	-212.52	920.28	342.17	-195.43	921.01	269.27	-130.79	778.85	526.49	-47.66	786.9	134.01	-133.97	925.77	489.4	-63.427	925.84	153.99	-231.52	875.06	291.36	-183.04	587.02	496.05	-154.61	494.44	463.47	-225.4	511.23	471.15	-116.02	572.06	487.28	-236.31	431.2	452.97	-234.65	421.56	309.48	-397.66	279.73	424.3	-367.46	174.44	404.85	-424.29	211.3	410.8	-339.27	235.99	425.41	-452.12	116.47	394.38	-437.6	128.84	311.76	-515.13	116.95	336.98	-509.17	82.994	309.59	-519.82	85.919	372.84	-369.28	38.246	420.47	-335.34	32.317	313.52	-286.59	52.469	369.41	13.602	563.39	160.15	115.76	526.41	178.51	49.966	483.36	186.47	70.152	606.35	152.52	132.66	448.27	188.91	120.18	441.91	330.42	132.47	259.24	193.75	235.89	217.47	204.38	166.92	194.54	210.12	194.45	279.92	188.88	255.23	104.62	217.85	268.26	113.84	299.92	218.9	52.057	257.46	238.63	36.686	293.63	236.82	26.037	232.89	386.27	90.676	194.58	398.11	123.81	298.62	441.56	162.78	247.56	-152.7	1353.7	339.94	-233.51	1102	331.56
295	1.225	38.001	1057.3	344.95	-73.215	1286.1	482.59	-67.274	1298.4	189.53	-14.246	1572	326.59	-11.152	878	464.05	48.047	875.94	250.04	-206.36	919.79	341.98	-189.42	920.6	269.06	-125.06	778.14	526.14	-41.342	786.68	133.76	-127.78	925.16	489.15	-57.394	925.27	153.71	-225.35	874.63	291.03	-177.49	586.45	495.77	-149.16	493.79	463.37	-219.93	510.7	470.94	-110.47	571.38	487.15	-231	430.68	452.89	-229.22	420.91	309.43	-393.97	281	424.4	-365.19	175.32	405.08	-421.45	212.89	410.98	-336.16	236.56	425.53	-450.43	118.34	394.84	-435.63	130.51	312.17	-513.34	119.88	337.48	-507.92	85.953	309.91	-518.55	88.733	373.18	-368.91	38.347	420.66	-335.29	32.327	313.6	-286.48	52.251	369.34	19.864	563.08	160.15	122.03	526.17	178.6	56.243	483.11	186.65	76.395	606.04	152.45	138.8	447.91	189.11	126.56	441.9	330.48	136.86	258.81	194.02	239.79	215.94	204.98	170.57	193.72	210.4	199.07	278.85	189.39	257.72	103.33	218.27	270.83	111.99	300.49	220.6	51.853	257.84	239.9	35.851	293.83	237.88	25.684	233.03	388.41	87.552	195.07	400.75	119.95	299.28	444.88	158.35	248.41	-146.55	1353.3	338.9	-227.24	1101.5	331.07
296	1.2292	44.339	1056.9	344.41	-66.985	1285.9	481.66	-60.901	1297.8	188.59	-8.651	1571.7	324.92	-4.9881	877.36	463.67	54.22	875.47	249.66	-200.13	919.33	341.81	-183.36	920.24	268.86	-119.2	777.45	525.8	-34.994	786.5	133.5	-121.49	924.61	488.9	-51.334	924.77	153.39	-219.11	874.23	290.73	-171.81	585.9	495.49	-143.55	493.15	463.28	-214.32	510.18	470.75	-104.79	570.72	487.02	-225.55	430.17	452.84	-223.67	420.26	309.42	-390.14	282.32	424.53	-362.8	176.26	405.37	-418.48	214.54	411.21	-332.94	237.16	425.7	-448.61	120.26	395.32	-433.52	132.24	312.64	-511.39	122.94	338.02	-506.53	89.059	310.26	-517.16	91.685	373.55	-368.51	38.465	420.87	-335.25	32.353	313.69	-286.38	52.038	369.27	26.085	562.82	160.15	128.24	525.94	178.68	62.451	482.9	186.83	82.614	605.75	152.38	144.87	447.58	189.3	132.86	441.9	330.53	141.2	258.43	194.29	243.65	214.47	205.58	174.16	192.96	210.69	203.64	277.83	189.91	260.15	102.11	218.7	273.32	110.21	301.06	222.18	51.807	258.22	241.02	35.143	294.04	238.8	25.482	233.18	390.41	84.416	195.55	403.3	116.05	299.94	448.13	153.82	249.27	-140.37	1352.9	337.83	-220.92	1101	330.57
297	1.2333	50.731	1056.6	343.86	-60.727	1285.8	480.71	-54.496	1297.3	187.62	-3.0393	1571.5	323.24	1.2618	876.78	463.24	60.421	875.07	249.23	-193.85	918.92	341.65	-177.26	919.93	268.67	-113.22	776.77	525.46	-28.618	786.39	133.23	-115.09	924.11	488.64	-45.246	924.34	153.05	-212.81	873.87	290.46	-165.98	585.37	495.24	-137.8	492.53	463.21	-208.54	509.66	470.59	-98.958	570.09	486.88	-219.94	429.66	452.84	-217.99	419.6	309.44	-386.18	283.69	424.71	-360.27	177.25	405.72	-415.38	216.26	411.48	-329.59	237.82	425.92	-446.67	122.24	395.81	-431.26	134.04	313.15	-509.27	126.12	338.61	-505.01	92.311	310.64	-515.63	94.777	373.96	-368.07	38.604	421.1	-335.21	32.396	313.79	-286.27	51.829	369.21	32.263	562.62	160.14	134.39	525.72	178.75	68.589	482.74	187	88.806	605.5	152.29	150.88	447.29	189.48	139.04	441.95	330.56	145.52	258.12	194.58	247.46	213.06	206.19	177.73	192.27	211	208.17	276.87	190.44	262.51	100.97	219.14	275.74	108.51	301.64	223.65	51.912	258.6	242.02	34.565	294.25	239.59	25.426	233.32	392.31	81.29	196.04	405.76	112.12	300.61	451.32	149.22	250.14	-134.17	1352.5	336.74	-214.55	1100.6	330.06
298	1.2375	57.173	1056.3	343.29	-54.442	1285.7	479.75	-48.064	1296.8	186.63	2.5898	1571.4	321.56	7.5952	876.26	462.75	66.648	874.73	248.75	-187.52	918.55	341.52	-171.12	919.66	268.5	-107.11	776.11	525.12	-22.215	786.33	132.94	-108.59	923.69	488.38	-39.128	923.98	152.67	-206.45	873.53	290.22	-160	584.84	494.99	-131.88	491.92	463.15	-202.62	509.13	470.45	-92.983	569.48	486.74	-214.16	429.15	452.88	-212.17	418.95	309.51	-382.07	285.1	424.92	-357.6	178.3	406.14	-412.12	218.04	411.8	-326.1	238.51	426.2	-444.59	124.27	396.32	-428.85	135.91	313.72	-506.97	129.43	339.24	-503.34	95.711	311.06	-513.96	98.011	374.39	-367.59	38.766	421.34	-335.17	32.463	313.9	-286.17	51.624	369.14	38.396	562.47	160.12	140.49	525.53	178.81	74.655	482.62	187.17	94.969	605.29	152.19	156.83	447.04	189.65	145.12	442.02	330.57	149.83	257.89	194.88	251.26	211.74	206.8	181.29	191.67	211.32	212.69	275.99	190.98	264.83	99.912	219.58	278.11	106.9	302.22	225.05	52.156	258.98	242.93	34.113	294.46	240.3	25.508	233.47	394.12	78.194	196.53	408.13	108.2	301.28	454.45	144.58	251.01	-127.93	1352.2	335.63	-208.13	1100.2	329.53
299	1.2417	63.664	1056.2	342.7	-48.129	1285.7	478.77	-41.609	1296.4	185.63	8.237	1571.3	319.87	14.008	875.8	462.21	72.9	874.44	248.23	-181.13	918.22	341.4	-164.94	919.44	268.35	-100.88	775.48	524.79	-15.79	786.34	132.64	-101.99	923.32	488.11	-32.982	923.7	152.26	-200.03	873.23	290.02	-153.88	584.32	494.77	-125.8	491.32	463.11	-196.52	508.6	470.34	-86.858	568.9	486.6	-208.22	428.64	452.96	-206.21	418.28	309.63	-377.8	286.55	425.17	-354.78	179.4	406.63	-408.72	219.87	412.16	-322.47	239.24	426.54	-442.36	126.36	396.84	-426.29	137.84	314.33	-504.48	132.87	339.91	-501.5	99.258	311.5	-512.13	101.39	374.84	-367.08	38.956	421.61	-335.13	32.557	314.02	-286.06	51.42	369.09	44.485	562.39	160.1	146.53	525.37	178.86	80.653	482.55	187.34	101.1	605.12	152.08	162.73	446.86	189.79	151.08	442.14	330.56	154.13	257.73	195.19	255.03	210.5	207.41	184.84	191.17	211.65	217.19	275.18	191.51	267.12	98.941	220.02	280.41	105.39	302.79	226.38	52.525	259.34	243.75	33.785	294.67	240.94	25.714	233.62	395.83	75.147	197.01	410.42	104.31	301.95	457.51	139.92	251.88	-121.67	1352	334.51	-201.66	1099.9	328.99
